<svg xmlns="http://www.w3.org/2000/svg" width="22" height="18" viewBox="0 0 22 18"><g><g><path fill="#fff" d="M21.453 17.038a1.768 1.768 0 0 1-2.42.429l-7.145-4.815a1.673 1.673 0 0 1-.748-1.45 6.321 6.321 0 0 1-3.485 1.846 6.414 6.414 0 0 1-4.73-.992A6.101 6.101 0 0 1 .303 8.097a5.988 5.988 0 0 1 1.02-4.607C3.305.7 7.252 0 10.12 1.93c2.603 1.755 3.434 5.084 2.082 7.77a1.775 1.775 0 0 1 1.664.169l7.147 4.814c.79.533.987 1.587.44 2.355zM10.859 6.225a4.25 4.25 0 0 0-1.827-2.76C7.033 2.117 4.28 2.605 2.895 4.55c-1.382 1.948-.882 4.628 1.117 5.973 1.999 1.348 4.751.86 6.136-1.086.67-.942.922-2.083.71-3.212z"/></g></g></svg>